<svg xmlns="http://www.w3.org/2000/svg" xmlns:xlink="http://www.w3.org/1999/xlink" width="587.736" height="614.606" viewBox="0 0 587.736 614.606"><defs><style>.a{fill:none;}.b{fill:#2cabe0;}.c{fill:#93d2e5;}.d{fill:url(#a);}.e{fill:url(#b);}.f{fill:#043663;}.g{opacity:0.51;}.h{fill:#385084;stroke:#fff;stroke-miterlimit:10;}.i{fill:#97afd1;}.j{fill:#c0efff;}.k{fill:#fff;}.l{opacity:0.15;}.m{clip-path:url(#c);}.n{fill:url(#d);}.o{fill:url(#e);}.p{opacity:0.5;}.q{fill:#24126a;}.r{opacity:0.8;}.s{fill:#244d7f;}.t{fill:#42e8e0;}</style><linearGradient id="a" x1="-0.795" y1="1.887" x2="-0.792" y2="1.887" gradientUnits="objectBoundingBox"><stop offset="0" stop-color="#bee9f4"/><stop offset="0.294" stop-color="#c4c3f6"/><stop offset="0.64" stop-color="#d2d2f9"/><stop offset="1" stop-color="#e9e9fd"/></linearGradient><linearGradient id="b" x1="-9.723" y1="2.563" x2="-9.708" y2="2.563" gradientUnits="objectBoundingBox"><stop offset="0" stop-color="#58b9d6"/><stop offset="0.178" stop-color="#5c8bd6"/><stop offset="0.388" stop-color="#6ba4dd"/><stop offset="0.613" stop-color="#80b7e5"/><stop offset="0.849" stop-color="#a4d7f4"/><stop offset="1" stop-color="#c0f0ff"/></linearGradient><clipPath id="c"><path class="a" d="M667.843,430.588l-329.239-190L297.238,486.536,626.264,676.413Z"/></clipPath><linearGradient id="d" x1="-0.56" y1="2.321" x2="-0.558" y2="2.321" xlink:href="#b"/><linearGradient id="e" x1="-0.558" y1="2.286" x2="-0.557" y2="2.286" xlink:href="#a"/></defs><g transform="translate(-89.127 -232.378)"><path class="b" d="M424.36,846.98a15.041,15.041,0,0,1-7.35-1.856L92.643,657.851c-2.235-1.291-3.516-3.083-3.516-4.921a4.685,4.685,0,0,1,2.654-4.01L285.343,537.167c3.444-1.988,9.222-1.768,13.154.5L622.864,724.938c2.235,1.291,3.516,3.083,3.516,4.921a4.684,4.684,0,0,1-2.657,4.01L430.165,845.62A11.811,11.811,0,0,1,424.36,846.98ZM93.8,655.846,418.17,843.118c3.167,1.836,8.132,2.058,10.834.5L622.569,731.867a2.546,2.546,0,0,0,1.5-2.005c0-.973-.881-2.063-2.359-2.913L297.34,539.667c-3.172-1.831-8.139-2.058-10.837-.5L92.939,650.925a2.545,2.545,0,0,0-1.5,2.005c0,.974.881,2.066,2.359,2.916Z"/><path class="b" d="M381.811,365.373,370.074,358.6l.455-2.713,11.737,6.776Z"/><path class="b" d="M391.826,371.156l-5.868-3.388.455-2.713,5.868,3.388Z"/><path class="b" d="M384.211,373.733l-5-2.887.455-2.713,5,2.887Z"/><path class="b" d="M392.583,378.571l-5.864-3.393.455-2.713,5.868,3.388Z"/><path class="b" d="M401.2,390.523l-23.062-13.315.455-2.713,23.062,13.315Z"/><path class="b" d="M381.21,443.776l-23.061-13.314.455-2.713,23.062,13.315Z"/><path class="b" d="M390.079,448.9l-5.868-3.388.455-2.713,5.869,3.388Z"/><path class="b" d="M382.074,386.457l-5-2.887.455-2.713,5,2.887Z"/><path class="b" d="M390.45,391.293l-5.868-3.388.455-2.713,5.868,3.388Z"/><path class="b" d="M388.685,397.251l-12.678-7.32.455-2.713,12.678,7.32Z"/><path class="b" d="M397.172,402.151l-5.868-3.388.455-2.713,5.868,3.388Z"/><path class="b" d="M405.7,407.076l-5.869-3.388.455-2.713,5.868,3.388Z"/><path class="b" d="M419.468,415.023l-11.1-6.411.455-2.713,11.1,6.411Z"/><path class="b" d="M410.68,423.9l-5.868-3.388.455-2.713,5.868,3.388Z"/><path class="b" d="M424.451,431.853l-11.1-6.411.455-2.713,11.1,6.411Z"/><path class="b" d="M379.742,406.042l-5.868-3.388.455-2.713,5.868,3.388Z"/><path class="b" d="M388.272,410.967l-5.868-3.388.455-2.713,5.869,3.388Z"/><path class="b" d="M402.039,418.916l-11.1-6.411.455-2.713,11.1,6.411Z"/><path class="b" d="M420.078,422.353l-5.868-3.388.455-2.713,5.868,3.388Z"/><path class="b" d="M428.609,427.278l-5.868-3.388.455-2.713,5.869,3.388Z"/><path class="b" d="M442.376,435.226l-11.1-6.411.455-2.713,11.1,6.411Z"/><path class="b" d="M399.26,454.2l-5.868-3.388.455-2.713,5.868,3.388Z"/><path class="b" d="M413.027,462.146l-11.1-6.411.455-2.713,11.1,6.411Z"/><path class="b" d="M377.608,418.765l-5.869-3.388.455-2.713,5.868,3.388Z"/><path class="b" d="M391.375,426.712l-11.1-6.411.455-2.713L391.83,424Z"/><path class="b" d="M405.653,464.865l-5.868-3.388.455-2.713,5.868,3.388Z"/><path class="b" d="M419.42,472.813l-11.1-6.411.455-2.713,11.1,6.411Z"/><path class="b" d="M418.744,400.652l-5.867-3.388.455-2.713,5.868,3.388Z"/><path class="b" d="M409.869,395.533,404,392.145l.455-2.713,5.868,3.388Z"/><path class="b" d="M432.511,408.6l-11.1-6.411.455-2.713,11.1,6.411Z"/><path class="b" d="M380.235,399.35l-5.295-3.057.455-2.713,5.3,3.057Z"/><path class="b" d="M395.935,408.414l-12.869-7.43.455-2.713,12.869,7.43Z"/><path class="b" d="M411.636,417.479l-12.869-7.43.455-2.713,12.869,7.43Z"/><path class="b" d="M440.667,413.308l-5.295-3.057.455-2.713,5.3,3.057Z"/><path class="b" d="M456.367,422.374l-12.869-7.43.455-2.713,12.87,7.43Z"/><path class="b" d="M472.071,431.441l-12.869-7.43.455-2.713,12.869,7.43Z"/><path class="b" d="M385.79,416.511l-12.869-7.433.455-2.713,12.869,7.43Z"/><path class="b" d="M392.574,420.428l-3.953-2.282.455-2.713,3.953,2.282Z"/><path class="b" d="M399.373,424.353l-3.953-2.282.455-2.713,3.953,2.282Z"/><path class="b" d="M411.943,431.608l-9.724-5.614.455-2.713,9.724,5.614Z"/><path class="b" d="M426.032,418.813l-3.953-2.282.455-2.713,3.953,2.282Z"/><path class="b" d="M438.6,426.07l-9.724-5.614.455-2.713,9.724,5.614Z"/><path class="b" d="M441.243,427.6l-9.721-5.614.455-2.713,9.724,5.614Z"/><path class="b" d="M389.475,462.5l-12.678-7.32.455-2.713,12.678,7.32Z"/><path class="b" d="M397.962,467.4l-5.868-3.388.455-2.713,5.868,3.388Z"/><path class="b" d="M406.493,472.328l-5.869-3.388.455-2.713,5.868,3.388Z"/><path class="b" d="M420.26,480.276l-11.1-6.411.455-2.713,11.1,6.411Z"/><path class="b" d="M429.065,485.36l-5.869-3.388.455-2.713,5.868,3.388Z"/><path class="b" d="M442.832,493.308l-11.1-6.411.455-2.713,11.1,6.411Z"/><path class="b" d="M400.6,482.881l-5.868-3.388.455-2.713,5.868,3.388Z"/><path class="b" d="M414.368,490.828l-11.1-6.411.455-2.713,11.1,6.411Z"/><path class="b" d="M369.95,465.184l-5.868-3.388.455-2.713,5.869,3.388Z"/><path class="b" d="M378.48,470.109l-5.868-3.388.455-2.713,5.868,3.388Z"/><path class="b" d="M392.248,478.058l-11.1-6.411.455-2.713,11.1,6.411Z"/><path class="b" d="M381.026,464.6l-5.3-3.057.455-2.713,5.295,3.057Z"/><path class="b" d="M396.727,473.667l-12.869-7.43.455-2.713,12.869,7.43Z"/><path class="b" d="M412.427,482.731l-12.869-7.43.455-2.713,12.869,7.43Z"/><path class="b" d="M365.618,469.66l-12.869-7.43.455-2.713,12.869,7.43Z"/><path class="b" d="M372.4,473.577l-3.953-2.282.455-2.713,3.953,2.282Z"/><path class="b" d="M379.2,477.506l-3.953-2.282.455-2.713,3.953,2.282Z"/><path class="b" d="M391.771,484.759l-9.724-5.614.455-2.713,9.724,5.614Z"/><path class="b" d="M394.413,486.284l-9.724-5.614.455-2.713,9.724,5.614Z"/><path class="b" d="M371.417,445.1l-3.953-2.282.455-2.713,3.953,2.282Z"/><path class="b" d="M383.985,452.355l-9.724-5.614.455-2.713,9.724,5.614Z"/><path class="b" d="M396.826,459.769l-9.724-5.614.455-2.716,9.724,5.614Z"/><path class="b" d="M446.314,502.3l-5.869-3.388.455-2.713,5.868,3.388Z"/><path class="b" d="M460.08,510.243l-11.1-6.411.455-2.713,11.1,6.411Z"/><path class="b" d="M424.645,489.784l-9.724-5.614.455-2.713,9.724,5.614Z"/><path class="b" d="M437.487,497.2l-9.724-5.614.455-2.713,9.724,5.614Z"/><path class="b" d="M364.54,418.2l-3.953-2.282.455-2.713,3.953,2.282Z"/><path class="b" d="M377.11,425.454l-9.724-5.614.455-2.713,9.724,5.614Z"/><path class="b" d="M389.952,432.868l-9.724-5.614.455-2.713,9.724,5.614Z"/><path class="c" d="M583.963,531.759a5.465,5.465,0,0,1-2.72-.787L502.649,485.6c-3.206-1.853-5.279-6.541-4.625-10.449l5.027-29.987a5.587,5.587,0,0,1,2.884-4.311,4.826,4.826,0,0,1,4.545.38l78.6,45.379c3.2,1.85,5.279,6.536,4.623,10.445l-5.027,29.987a5.578,5.578,0,0,1-2.883,4.31A4.255,4.255,0,0,1,583.963,531.759Zm-76.2-90.209a3.137,3.137,0,0,0-1.354.3,4.509,4.509,0,0,0-2.264,3.5l-5.03,29.987c-.586,3.492,1.25,7.667,4.092,9.309L581.8,530.02a3.749,3.749,0,0,0,3.521.341,4.52,4.52,0,0,0,2.267-3.5l5.027-29.987c.586-3.492-1.25-7.667-4.09-9.306l-78.6-45.377a4.328,4.328,0,0,0-2.167-.641Z"/><path class="c" d="M575.321,583.289a5.457,5.457,0,0,1-2.719-.785l-78.594-45.377c-3.2-1.851-5.279-6.536-4.625-10.448l5.03-29.987a5.583,5.583,0,0,1,2.877-4.311,4.828,4.828,0,0,1,4.55.379l78.6,45.375c3.206,1.85,5.279,6.536,4.625,10.445l-5.03,29.987a5.577,5.577,0,0,1-2.882,4.31A4.23,4.23,0,0,1,575.321,583.289Zm-2.165-1.74a3.746,3.746,0,0,0,3.521.337,4.507,4.507,0,0,0,2.264-3.5l5.027-29.987c.588-3.49-1.247-7.666-4.088-9.306l-78.594-45.376a3.765,3.765,0,0,0-3.526-.34,4.506,4.506,0,0,0-2.262,3.5l-5.03,29.991c-.583,3.492,1.252,7.667,4.093,9.306Z"/><path class="b" d="M509.711,482.364c1.392.8,2.632.5,3.092-.751l9.164-25.042c1.046-2.86,5.323-.274,6.228,3.766l5.643,25.2a7.338,7.338,0,0,0,3.138,4.516l1.346.777c1.31.758,2.494.538,3.01-.555l1.867-3.955c1.157-2.453,5.013-.14,6.066,3.637h0a7.3,7.3,0,0,0,3.056,4.192l1.177.68c1.429.823,2.69.484,3.122-.838l1.7-5.228c.961-2.952,5.25-.494,6.236,3.57l5.647,23.333a7.3,7.3,0,0,0,3.163,4.436Z"/><path class="c" d="M563.418,571.433a7.843,7.843,0,0,1-3.432-4.791l-5.647-23.333c-.6-2.48-2.615-4.393-4.015-4.446a1.119,1.119,0,0,0-1.158.918l-1.7,5.228a2.3,2.3,0,0,1-1.354,1.516,3,3,0,0,1-2.569-.373l-1.175-.677a7.81,7.81,0,0,1-3.313-4.525c-.668-2.393-2.545-4.123-3.88-4.238a1.066,1.066,0,0,0-1.158.69l-1.865,3.955a2.194,2.194,0,0,1-1.344,1.213,3.048,3.048,0,0,1-2.443-.417l-1.346-.777a7.859,7.859,0,0,1-3.4-4.872l-5.647-25.2c-.555-2.489-2.564-4.452-3.993-4.545a1.123,1.123,0,0,0-1.174.845l-9.166,25.045a2.269,2.269,0,0,1-1.354,1.423,3.023,3.023,0,0,1-2.53-.384l.554-.957a1.94,1.94,0,0,0,1.6.3,1.176,1.176,0,0,0,.693-.763l9.166-25.045a2.177,2.177,0,0,1,2.281-1.567c1.86.119,4.313,2.322,5,5.4l5.645,25.2a6.775,6.775,0,0,0,2.872,4.159l1.349.776a2.049,2.049,0,0,0,1.559.321,1.119,1.119,0,0,0,.676-.631l1.865-3.955a2.168,2.168,0,0,1,2.247-1.32c1.978.167,4.107,2.383,4.85,5.042a6.759,6.759,0,0,0,2.8,3.865l1.179.678a1.975,1.975,0,0,0,1.62.3,1.226,1.226,0,0,0,.7-.828l1.7-5.228a2.2,2.2,0,0,1,2.146-1.678h.1c1.836.07,4.3,2.213,5.047,5.289l5.647,23.333a6.77,6.77,0,0,0,2.9,4.084Z"/><path class="b" d="M531.879,416.015a6.91,6.91,0,0,1-3.441-.978L466.989,379.56a10.933,10.933,0,0,1-4.725-11.776A6.55,6.55,0,0,1,466,363.268a6.3,6.3,0,0,1,5.626.55l61.457,35.476A10.935,10.935,0,0,1,537.8,411.07a6.546,6.546,0,0,1-3.732,4.516A5.786,5.786,0,0,1,531.879,416.015Zm-63.7-52.072a4.589,4.589,0,0,0-1.765.346,5.459,5.459,0,0,0-3.085,3.787,9.779,9.779,0,0,0,4.214,10.529l61.449,35.475a5.2,5.2,0,0,0,4.654.484,5.461,5.461,0,0,0,3.088-3.787,9.77,9.77,0,0,0-4.216-10.529l-61.447-35.475A5.758,5.758,0,0,0,468.179,363.943Z"/><path class="b" d="M424.36,846.98a15.041,15.041,0,0,1-7.35-1.856L92.643,657.851c-2.235-1.291-3.516-3.083-3.516-4.921a4.685,4.685,0,0,1,2.654-4.01L285.343,537.167c3.444-1.988,9.222-1.768,13.154.5L622.864,724.938c2.235,1.291,3.516,3.083,3.516,4.921a4.684,4.684,0,0,1-2.657,4.01L430.165,845.62A11.811,11.811,0,0,1,424.36,846.98ZM93.8,655.846,418.17,843.118c3.167,1.836,8.132,2.058,10.834.5L622.569,731.867a2.546,2.546,0,0,0,1.5-2.005c0-.973-.881-2.063-2.359-2.913L297.34,539.667c-3.172-1.831-8.139-2.058-10.837-.5L92.939,650.925a2.545,2.545,0,0,0-1.5,2.005c0,.974.881,2.066,2.359,2.916Z"/><path class="d" d="M298.376,480.282l41-243.266-3.3-1.39,4.952-2.838-.007.027c.961-.639,2.32-.6,3.819.264l327.7,189.2c2.69,1.555,4.727,5.538,4.255,8.323l-41.33,245.2a3.069,3.069,0,0,1-1.727,2.5h0l-4.848,2.8-.831-4.526.276.086-325.7-188.056C299.94,487.053,297.9,483.067,298.376,480.282Z"/><path class="e" d="M670.722,428.923l5.388-2.383a7.409,7.409,0,0,1,.693,4.054l-41.33,245.2a3.072,3.072,0,0,1-1.727,2.5h0l-4.846,2.8-.833-4.526.276.085-16.482-9.517Z"/><path class="f" d="M297.49,491.554l327.7,189.2c2.531,1.461,4.7.617,5.141-2l41.33-245.2c.472-2.785-1.564-6.768-4.255-8.323l-327.7-189.2c-2.531-1.46-4.7-.618-5.141,2l-41.33,245.2C292.763,486.016,294.8,490,297.49,491.554Z"/><g class="g"><path class="h" d="M338.6,240.919l329.239,190L626.264,676.743,297.238,486.866Z"/></g><path class="i" d="M91.5,607.643l17.884,9.338L288.71,513.448c3-1.731,8.241-1.514,11.7.484L609.7,692.5c2.959-1.654,16.453-8.144,16.453-8.144l-6.541,10.639-.027-.019A3.9,3.9,0,0,1,617.755,697L428.884,806.046c-3,1.734-8.241,1.516-11.706-.484l-316.5-182.73a5.665,5.665,0,0,1-2.654-2.824l-.024.017Z"/><path class="j" d="M94.264,610.583,418.631,797.856c3.55,2.051,8.921,2.274,12,.5L624.189,686.6c3.073-1.775,2.688-4.877-.862-6.926L298.96,492.4c-3.55-2.051-8.921-2.274-12-.5L93.4,603.657C90.326,605.432,90.709,608.532,94.264,610.583Z"/><path class="k" d="M94.263,609.129,418.63,796.4c3.55,2.049,8.921,2.274,12,.5L624.189,685.148a3.9,3.9,0,0,0,1.949-2.269c.344,1.378-.266,2.749-1.949,3.722L430.627,798.353c-3.076,1.778-8.447,1.555-12-.5L94.263,610.583c-2.3-1.329-3.25-3.1-2.811-4.659A5.486,5.486,0,0,0,94.263,609.129Z"/><g class="l"><g class="m"><path class="n" d="M297.088,489.978l17.884,9.34L494.3,395.784c3-1.734,8.241-1.516,11.706.484L815.288,574.836c2.959-1.656,16.455-8.146,16.455-8.146L825.2,577.331l-.024-.022a3.9,3.9,0,0,1-1.831,2.032L634.474,688.378c-3,1.73-8.241,1.514-11.7-.487l-316.5-182.724a5.665,5.665,0,0,1-2.656-2.824l-.024.017Z"/><path class="o" d="M299.854,492.913,624.221,680.191c3.55,2.049,8.921,2.271,12,.5L829.78,568.934c3.076-1.775,2.688-4.875-.862-6.926L504.551,374.735c-3.55-2.049-8.921-2.271-11.994-.5L298.992,485.99C295.919,487.765,296.3,490.867,299.854,492.913Z"/><path class="k" d="M828.917,562.008,504.551,374.735a14.145,14.145,0,0,0-8.016-1.63,13.491,13.491,0,0,1,5.626,1.63L826.53,562.008c3.55,2.051,3.935,5.151.86,6.926L633.828,680.688a9.8,9.8,0,0,1-3.981,1.133,11.38,11.38,0,0,0,6.371-1.133L829.78,568.934C832.855,567.159,832.468,564.059,828.917,562.008Z"/><g class="p"><path class="q" d="M469.759,460.676l-10.4-6a3.469,3.469,0,0,0-3.153.087l-11.556,6.752c-.908.53-.969,1.349-.133,1.831l10.4,6a3.479,3.479,0,0,0,3.155-.087l11.554-6.752C470.534,461.979,470.594,461.16,469.759,460.676Z"/><path class="q" d="M485.814,469.948l-10.4-6a3.473,3.473,0,0,0-3.155.087l-11.553,6.746c-.908.53-.966,1.349-.131,1.833l10.4,6a3.47,3.47,0,0,0,3.155-.088l11.553-6.745C486.591,471.249,486.649,470.43,485.814,469.948Z"/><path class="q" d="M501.872,479.223l-10.4-6a3.469,3.469,0,0,0-3.153.087l-11.559,6.744c-.908.53-.966,1.351-.133,1.833l10.4,6a3.479,3.479,0,0,0,3.155-.09l11.556-6.749C502.647,480.523,502.708,479.7,501.872,479.223Z"/><path class="q" d="M489.647,491.557l-10.4-6a3.469,3.469,0,0,0-3.153.087l-9.7,5.667c-.908.53-.966,1.351-.133,1.833l10.4,6a3.479,3.479,0,0,0,3.155-.087l9.7-5.667C490.422,492.86,490.483,492.039,489.647,491.557Z"/><path class="q" d="M505.706,500.827l-10.4-6a3.473,3.473,0,0,0-3.155.087l-9.7,5.667c-.906.53-.966,1.351-.131,1.833l10.4,6a3.479,3.479,0,0,0,3.155-.087l9.7-5.667C506.481,502.13,506.539,501.309,505.706,500.827Z"/><path class="q" d="M521.761,510.1l-10.4-6a3.469,3.469,0,0,0-3.153.087l-9.7,5.669c-.908.53-.966,1.349-.133,1.831l10.4,6a3.479,3.479,0,0,0,3.155-.087l9.7-5.667C522.536,511.4,522.6,510.579,521.761,510.1Z"/><path class="q" d="M537.819,519.367l-10.4-6a3.473,3.473,0,0,0-3.155.087l-9.7,5.669c-.906.53-.966,1.351-.131,1.833l10.4,6a3.469,3.469,0,0,0,3.153-.087l9.7-5.667C538.594,520.67,538.651,519.849,537.819,519.367Z"/><path class="q" d="M553.877,528.636l-10.4-6a3.473,3.473,0,0,0-3.155.09l-9.7,5.667c-.908.53-.966,1.351-.133,1.833l10.4,6a3.479,3.479,0,0,0,3.155-.09l9.7-5.668C554.649,529.936,554.71,529.12,553.877,528.636Z"/><path class="q" d="M569.932,537.907l-10.4-6a3.467,3.467,0,0,0-3.155.087l-9.7,5.667c-.906.53-.966,1.351-.131,1.833l10.4,6a3.475,3.475,0,0,0,3.153-.087l9.7-5.669C570.7,539.21,570.765,538.392,569.932,537.907Z"/><path class="q" d="M585.988,547.179l-10.4-6a3.473,3.473,0,0,0-3.155.087l-9.7,5.667c-.908.53-.966,1.351-.131,1.833l10.4,6a3.479,3.479,0,0,0,3.155-.087l9.7-5.668C586.763,548.48,586.823,547.661,585.988,547.179Z"/><path class="q" d="M602.046,556.45l-10.4-6a3.473,3.473,0,0,0-3.155.087l-9.7,5.667c-.908.53-.969,1.351-.133,1.833l10.4,6a3.475,3.475,0,0,0,3.153-.087l9.7-5.667C602.821,557.753,602.879,556.932,602.046,556.45Z"/><path class="q" d="M618.1,565.72l-10.4-6a3.473,3.473,0,0,0-3.155.087l-9.7,5.667c-.908.53-.966,1.351-.131,1.833l10.4,6a3.479,3.479,0,0,0,3.155-.087l9.7-5.667C618.882,567.023,618.936,566.205,618.1,565.72Z"/><path class="q" d="M634.159,574.99l-10.4-6a3.473,3.473,0,0,0-3.155.087l-9.7,5.669c-.908.528-.969,1.349-.133,1.831l10.4,6a3.479,3.479,0,0,0,3.155-.087l9.7-5.667C634.934,576.293,634.992,575.472,634.159,574.99Z"/><path class="q" d="M482.959,504.791l-10.4-6a3.473,3.473,0,0,0-3.155.087l-9.7,5.667c-.908.53-.969,1.351-.133,1.833l10.4,6a3.479,3.479,0,0,0,3.155-.087l9.7-5.67C483.734,506.092,483.794,505.273,482.959,504.791Z"/><path class="q" d="M466.661,495.381l-10.4-6a3.473,3.473,0,0,0-3.155.087l-9.7,5.669c-.908.53-.966,1.349-.131,1.833l10.4,6a3.473,3.473,0,0,0,3.155-.087l9.7-5.667C467.438,496.684,467.5,495.863,466.661,495.381Z"/><path class="q" d="M450.34,485.958l-22.393-12.929a3.473,3.473,0,0,0-3.155.087l-9.7,5.667c-.908.53-.966,1.351-.131,1.833l22.393,12.929a3.479,3.479,0,0,0,3.155-.087l9.7-5.669C451.115,487.261,451.175,486.44,450.34,485.958Z"/><path class="q" d="M431.4,492.119l-18.174-10.493a3.473,3.473,0,0,0-3.155.087l-9.7,5.669c-.908.53-.969,1.349-.133,1.833l18.173,10.491a3.479,3.479,0,0,0,3.155-.087l9.7-5.667C432.178,493.422,432.236,492.6,431.4,492.119Z"/><path class="q" d="M499.014,514.061l-10.4-6a3.473,3.473,0,0,0-3.155.087l-9.7,5.667c-.908.53-.966,1.351-.131,1.833l10.4,6a3.479,3.479,0,0,0,3.155-.087l9.7-5.667C499.791,515.364,499.849,514.543,499.014,514.061Z"/><path class="q" d="M515.072,523.331l-10.4-6a3.473,3.473,0,0,0-3.155.087l-9.7,5.667c-.908.53-.966,1.351-.133,1.833l10.4,6a3.479,3.479,0,0,0,3.155-.087l9.7-5.667C515.847,524.634,515.908,523.813,515.072,523.331Z"/><path class="q" d="M531.124,532.6l-10.4-6a3.473,3.473,0,0,0-3.155.087l-9.7,5.667c-.908.53-.966,1.351-.131,1.833l10.4,6a3.479,3.479,0,0,0,3.155-.087l9.7-5.667C531.905,533.9,531.963,533.083,531.124,532.6Z"/><path class="q" d="M547.186,541.871l-10.4-6a3.469,3.469,0,0,0-3.153.087l-9.7,5.669c-.908.53-.966,1.349-.133,1.831l10.4,6a3.479,3.479,0,0,0,3.155-.087l9.7-5.667C547.961,543.174,548.022,542.353,547.186,541.871Z"/><path class="q" d="M563.241,551.146l-10.4-6a3.473,3.473,0,0,0-3.155.087l-9.7,5.669c-.908.53-.966,1.349-.131,1.833l10.4,6a3.473,3.473,0,0,0,3.155-.087l9.7-5.668C564.018,552.446,564.076,551.623,563.241,551.146Z"/><path class="q" d="M579.3,560.412l-10.4-6a3.469,3.469,0,0,0-3.153.09l-9.7,5.667c-.908.53-.966,1.351-.133,1.833l10.4,6a3.479,3.479,0,0,0,3.155-.09l9.7-5.667C580.074,561.715,580.135,560.889,579.3,560.412Z"/><path class="q" d="M595.357,569.682l-10.4-6a3.473,3.473,0,0,0-3.155.087l-9.7,5.667c-.906.53-.966,1.351-.131,1.833l10.4,6a3.479,3.479,0,0,0,3.155-.087l9.7-5.669C596.129,570.985,596.19,570.166,595.357,569.682Z"/><path class="q" d="M611.412,578.954l-10.4-6a3.469,3.469,0,0,0-3.153.087l-9.7,5.667c-.908.53-.966,1.351-.133,1.833l10.4,6a3.479,3.479,0,0,0,3.155-.087l9.7-5.669C612.187,580.257,612.248,579.436,611.412,578.954Z"/><path class="q" d="M627.471,588.224l-10.4-6a3.473,3.473,0,0,0-3.155.087l-9.7,5.667c-.906.53-.966,1.351-.131,1.833l10.4,6a3.475,3.475,0,0,0,3.153-.087l9.7-5.667C628.246,589.527,628.3,588.706,627.471,588.224Z"/><path class="q" d="M656.014,604.7l-22.689-13.1a3.473,3.473,0,0,0-3.155.087l-9.7,5.667c-.906.53-.966,1.351-.131,1.833l22.686,13.1a3.479,3.479,0,0,0,3.155-.09l9.7-5.667C656.792,606.006,656.85,605.185,656.014,604.7Z"/><path class="q" d="M626.579,621.9l-19.148-11.057a3.467,3.467,0,0,0-3.155.09l-9.7,5.667c-.908.53-.969,1.35-.133,1.832l19.148,11.056a3.476,3.476,0,0,0,3.155-.088l9.7-5.669C627.356,623.2,627.415,622.384,626.579,621.9Z"/><path class="q" d="M496.786,529.87l-10.4-6a3.469,3.469,0,0,0-3.153.087l-9.7,5.667c-.908.53-.966,1.351-.133,1.833l10.4,6a3.476,3.476,0,0,0,3.155-.088l9.7-5.669C497.563,531.173,497.622,530.352,496.786,529.87Z"/><path class="q" d="M480.329,520.368l-10.4-6a3.473,3.473,0,0,0-3.155.09l-9.7,5.667c-.906.53-.966,1.351-.131,1.833l10.4,6a3.479,3.479,0,0,0,3.155-.09l9.7-5.667C481.1,521.671,481.165,520.85,480.329,520.368Z"/><path class="q" d="M463.874,510.867l-10.4-6a3.469,3.469,0,0,0-3.153.087l-9.7,5.667c-.908.53-.966,1.351-.133,1.833l10.4,6a3.479,3.479,0,0,0,3.155-.087l9.7-5.664C464.649,512.17,464.71,511.349,463.874,510.867Z"/><path class="q" d="M447.419,501.367l-10.4-6a3.473,3.473,0,0,0-3.155.087l-9.7,5.667c-.906.53-.966,1.351-.131,1.833l10.4,6a3.479,3.479,0,0,0,3.155-.087l9.7-5.669C448.194,502.67,448.252,501.849,447.419,501.367Z"/><path class="q" d="M512.842,539.14l-10.4-6a3.473,3.473,0,0,0-3.155.087l-9.7,5.667c-.906.53-.966,1.351-.131,1.833l10.4,6a3.479,3.479,0,0,0,3.155-.087l9.7-5.668C513.62,540.443,513.678,539.622,512.842,539.14Z"/><path class="q" d="M528.9,548.41l-10.4-6a3.469,3.469,0,0,0-3.153.087l-9.7,5.669c-.908.528-.966,1.349-.133,1.831l10.4,6a3.479,3.479,0,0,0,3.155-.087l9.7-5.667C529.675,549.713,529.736,548.892,528.9,548.41Z"/><path class="q" d="M544.958,557.685l-10.4-6a3.473,3.473,0,0,0-3.155.087l-9.7,5.669c-.906.53-.966,1.349-.131,1.833l10.4,6a3.479,3.479,0,0,0,3.155-.087l9.7-5.667C545.733,558.985,545.791,558.162,544.958,557.685Z"/><path class="q" d="M561.013,566.95l-10.4-6a3.467,3.467,0,0,0-3.155.09l-9.7,5.667c-.908.53-.966,1.351-.133,1.833l10.4,6a3.47,3.47,0,0,0,3.155-.088l9.7-5.667C561.788,568.253,561.849,567.432,561.013,566.95Z"/><path class="q" d="M577.071,576.221l-10.4-6a3.467,3.467,0,0,0-3.155.087l-9.7,5.667c-.906.53-.966,1.351-.131,1.833l10.4,6a3.466,3.466,0,0,0,3.153-.09l9.7-5.667C577.846,577.523,577.9,576.7,577.071,576.221Z"/><path class="q" d="M593.127,585.49l-10.4-6a3.473,3.473,0,0,0-3.155.087l-9.7,5.667c-.908.53-.966,1.351-.131,1.833l10.4,6a3.479,3.479,0,0,0,3.155-.087l9.7-5.67C593.9,586.793,593.962,585.972,593.127,585.49Z"/><path class="q" d="M609.185,594.762l-10.4-6a3.473,3.473,0,0,0-3.155.087l-9.7,5.667c-.908.53-.969,1.351-.133,1.833l10.4,6a3.475,3.475,0,0,0,3.153-.087l9.7-5.667C609.96,596.065,610.018,595.244,609.185,594.762Z"/><path class="q" d="M625.24,604.032l-10.4-6a3.473,3.473,0,0,0-3.155.087l-9.7,5.667c-.908.53-.966,1.351-.131,1.833l10.4,6a3.476,3.476,0,0,0,3.155-.088l9.7-5.667C626.017,605.335,626.073,604.514,625.24,604.032Z"/><path class="q" d="M641.3,613.3l-10.4-6a3.473,3.473,0,0,0-3.155.087l-9.7,5.667c-.908.53-.969,1.351-.133,1.833l10.4,6a3.476,3.476,0,0,0,3.155-.088l9.7-5.667C642.073,614.6,642.131,613.784,641.3,613.3Z"/><path class="q" d="M457.984,524.561l-10.4-6a3.473,3.473,0,0,0-3.155.087l-9.7,5.669c-.908.53-.969,1.349-.133,1.831l10.4,6a3.479,3.479,0,0,0,3.155-.087l9.7-5.667C458.76,525.864,458.818,525.042,457.984,524.561Z"/><path class="q" d="M442.005,515.337l-10.4-6a3.473,3.473,0,0,0-3.155.087l-9.7,5.667c-.908.533-.966,1.351-.131,1.833l10.4,6a3.479,3.479,0,0,0,3.155-.087l9.7-5.667C442.784,516.64,442.842,515.819,442.005,515.337Z"/><path class="q" d="M426.031,506.112l-10.4-6a3.473,3.473,0,0,0-3.155.087l-9.7,5.667c-.908.53-.969,1.351-.133,1.833l10.4,6a3.475,3.475,0,0,0,3.153-.087l9.7-5.667C426.806,507.412,426.864,506.6,426.031,506.112Z"/><path class="q" d="M410.053,496.889l-10.4-6a3.473,3.473,0,0,0-3.155.087l-9.7,5.667c-.908.53-.966,1.351-.133,1.833l10.4,6a3.479,3.479,0,0,0,3.155-.087l9.7-5.667C410.828,498.2,410.889,497.371,410.053,496.889Z"/><path class="q" d="M394.583,505.927l-10.4-6a3.473,3.473,0,0,0-3.155.087l-3.209,1.874c-.906.53-.966,1.351-.131,1.833l10.4,6a3.475,3.475,0,0,0,3.153-.09l3.209-1.872C395.358,507.23,395.419,506.409,394.583,505.927Z"/><path class="q" d="M415.434,517.97l-10.4-6a3.473,3.473,0,0,0-3.155.087l-3.206,1.874c-.908.53-.966,1.349-.131,1.833l10.4,6a3.479,3.479,0,0,0,3.155-.087L415.3,519.8C416.208,519.27,416.269,518.447,415.434,517.97Z"/><path class="q" d="M431.345,527.15l-10.4-6a3.473,3.473,0,0,0-3.155.087l-3.206,1.874c-.908.53-.966,1.351-.131,1.833l10.4,6a3.473,3.473,0,0,0,3.155-.09l3.206-1.872C432.119,528.453,432.18,527.632,431.345,527.15Z"/><path class="q" d="M447.254,536.336l-10.4-6a3.475,3.475,0,0,0-3.153.087l-3.209,1.874c-.906.53-.966,1.351-.131,1.833l10.4,6a3.479,3.479,0,0,0,3.155-.087l3.206-1.874C448.029,537.639,448.09,536.818,447.254,536.336Z"/><path class="q" d="M463.164,545.521l-10.4-6a3.469,3.469,0,0,0-3.153.087L446.4,541.48c-.906.53-.966,1.351-.131,1.833l10.4,6a3.479,3.479,0,0,0,3.155-.087l3.209-1.874C463.937,546.824,464,546.005,463.164,545.521Z"/><path class="q" d="M551.99,596.8l-10.4-6a3.467,3.467,0,0,0-3.155.087l-3.206,1.872c-.908.53-.966,1.351-.131,1.833l10.4,6a3.479,3.479,0,0,0,3.155-.087l3.206-1.874C552.765,598.107,552.824,597.286,551.99,596.8Z"/><path class="q" d="M567.9,605.992l-10.4-6a3.473,3.473,0,0,0-3.155.087l-3.206,1.874c-.908.53-.966,1.349-.131,1.831l10.4,6a3.479,3.479,0,0,0,3.155-.087l3.206-1.872C568.675,607.293,568.734,606.474,567.9,605.992Z"/><path class="q" d="M583.81,615.177l-10.4-6a3.473,3.473,0,0,0-3.155.087l-3.206,1.874c-.908.53-.966,1.351-.131,1.833l10.4,6a3.47,3.47,0,0,0,3.155-.088l3.206-1.871C584.585,616.48,584.644,615.659,583.81,615.177Z"/><path class="q" d="M599.72,624.362l-10.4-6a3.473,3.473,0,0,0-3.155.087l-3.206,1.874c-.908.53-.966,1.351-.131,1.833l10.4,6a3.476,3.476,0,0,0,3.155-.088l3.206-1.873C600.495,625.665,600.553,624.844,599.72,624.362Z"/><path class="q" d="M474.04,533.832l-10.4-6a3.479,3.479,0,0,0-3.155.087l-9.7,5.669c-.908.53-.966,1.351-.131,1.833l10.4,6a3.488,3.488,0,0,0,3.155-.09l9.7-5.667C474.817,535.135,474.875,534.314,474.04,533.832Z"/><path class="q" d="M490.1,543.1l-10.4-6a3.473,3.473,0,0,0-3.155.087l-9.7,5.667c-.908.53-.969,1.351-.133,1.833l10.4,6a3.473,3.473,0,0,0,3.155-.09l9.7-5.667C490.873,544.405,490.936,543.584,490.1,543.1Z"/><path class="q" d="M506.154,552.37l-10.4-6a3.473,3.473,0,0,0-3.155.087l-9.7,5.667c-.908.53-.966,1.351-.131,1.833l10.4,6a3.476,3.476,0,0,0,3.155-.088l9.7-5.669C506.931,553.67,506.989,552.856,506.154,552.37Z"/><path class="q" d="M522.211,561.644l-10.4-6a3.473,3.473,0,0,0-3.155.087l-9.7,5.667c-.908.53-.966,1.351-.133,1.832l10.4,6a3.473,3.473,0,0,0,3.155-.087l9.7-5.667C522.989,562.945,523.047,562.126,522.211,561.644Z"/><path class="q" d="M538.267,570.914l-10.4-6a3.473,3.473,0,0,0-3.155.087l-9.7,5.667c-.908.53-.966,1.351-.131,1.833l10.4,6a3.476,3.476,0,0,0,3.155-.088l9.7-5.667C539.044,572.217,539.1,571.4,538.267,570.914Z"/><path class="q" d="M554.325,580.184l-10.4-6a3.473,3.473,0,0,0-3.155.087l-9.7,5.667c-.908.53-.966,1.351-.133,1.833l10.4,6a3.479,3.479,0,0,0,3.155-.087l9.7-5.668C555.1,581.487,555.161,580.666,554.325,580.184Z"/><path class="q" d="M570.38,589.454l-10.4-6a3.473,3.473,0,0,0-3.155.087l-9.7,5.669c-.908.53-.966,1.349-.131,1.833l10.4,6a3.479,3.479,0,0,0,3.155-.087l9.7-5.667C571.157,590.757,571.215,589.938,570.38,589.454Z"/><path class="q" d="M586.438,598.724l-10.4-6a3.469,3.469,0,0,0-3.153.087l-9.7,5.669c-.908.53-.966,1.351-.133,1.833l10.4,6a3.485,3.485,0,0,0,3.155-.09l9.7-5.667C587.213,600.027,587.274,599.206,586.438,598.724Z"/><path class="q" d="M602.493,607.995l-10.4-6a3.473,3.473,0,0,0-3.155.09l-9.7,5.667c-.906.53-.966,1.351-.131,1.833l10.4,6a3.485,3.485,0,0,0,3.155-.087l9.7-5.67C603.271,609.3,603.329,608.477,602.493,607.995Z"/><path class="q" d="M473.284,482.111l-30.622-17.68a3.473,3.473,0,0,0-3.155.087l-9.7,5.667c-.906.53-.966,1.351-.131,1.833L460.3,489.7a3.479,3.479,0,0,0,3.155-.087l9.7-5.669C474.059,483.413,474.119,482.592,473.284,482.111Z"/><path class="q" d="M670.546,596,639.924,578.32a3.473,3.473,0,0,0-3.155.087l-9.7,5.667c-.908.53-.966,1.351-.131,1.833l30.622,17.68a3.475,3.475,0,0,0,3.153-.09l9.7-5.667C671.321,597.3,671.38,596.48,670.546,596Z"/><path class="q" d="M640.765,559.409l-10.4-6a3.473,3.473,0,0,0-3.155.087l-11.556,6.752c-.906.53-.966,1.349-.131,1.831l10.4,6a3.479,3.479,0,0,0,3.155-.087l11.556-6.752C641.54,560.71,641.6,559.889,640.765,559.409Z"/><path class="q" d="M524.161,492.085l-16.629-9.6a3.473,3.473,0,0,0-3.155.087l-11.556,6.751c-.908.53-.966,1.351-.131,1.833l16.627,9.6a3.479,3.479,0,0,0,3.155-.087l11.556-6.752C524.936,493.388,524.994,492.566,524.161,492.085Z"/><path class="q" d="M625.293,550.476l-16.63-9.6a3.463,3.463,0,0,0-3.153.087l-11.553,6.752c-.908.528-.966,1.349-.133,1.831l16.629,9.6a3.479,3.479,0,0,0,3.155-.087l11.556-6.752C626.068,551.779,626.129,550.958,625.293,550.476Z"/><path class="q" d="M547.327,505.462l-16.629-9.6a3.469,3.469,0,0,0-3.153.087l-11.559,6.75c-.908.53-.969,1.351-.133,1.833l16.629,9.6a3.479,3.479,0,0,0,3.155-.09l11.556-6.752C548.1,506.765,548.162,505.944,547.327,505.462Z"/><path class="q" d="M515.968,504.6l72.3,41.739a3.471,3.471,0,0,0,3.153.044l11.784-6.885c.845-.492.8-1.312-.094-1.831l-72.3-41.739Z"/><path class="q" d="M670.338,585.1l11.58,6.686a2.849,2.849,0,0,0,2.586-.073l4.727-2.761c.743-.436.792-1.107.109-1.5l-11.583-6.689a2.855,2.855,0,0,0-2.586.073l-4.727,2.761C669.7,584.035,669.653,584.708,670.338,585.1Z"/><path class="q" d="M654.147,575.755l11.583,6.686a2.854,2.854,0,0,0,2.586-.07l4.727-2.763c.743-.433.792-1.107.107-1.5l-11.58-6.689a2.849,2.849,0,0,0-2.586.073l-4.727,2.763C653.512,574.687,653.464,575.36,654.147,575.755Z"/><path class="q" d="M638.092,566.485l11.58,6.686a2.849,2.849,0,0,0,2.586-.073l4.727-2.761c.743-.433.792-1.107.109-1.5l-11.586-6.689a2.855,2.855,0,0,0-2.586.073l-4.727,2.761C637.455,565.417,637.408,566.09,638.092,566.485Z"/><path class="q" d="M645.8,580.632l11.583,6.686a2.848,2.848,0,0,0,2.586-.07l4.727-2.763c.743-.433.792-1.107.109-1.5L653.22,576.3a2.848,2.848,0,0,0-2.586.07l-4.727,2.763C645.163,579.564,645.115,580.237,645.8,580.632Z"/></g></g></g><g class="r"><path class="s" d="M243.468,589.844l-10.3-5.946c-.826-.477-.724-1.313.233-1.862l12.154-7.018a3.586,3.586,0,0,1,3.226-.133l10.3,5.946c.826.477.722,1.31-.232,1.862L246.7,589.711A3.591,3.591,0,0,1,243.468,589.844Z"/><path class="s" d="M259.372,599.023l-10.3-5.945c-.828-.477-.724-1.31.23-1.862l12.154-7.018a3.6,3.6,0,0,1,3.226-.133l10.3,5.945c.828.478.724,1.313-.23,1.862L262.6,598.891A3.592,3.592,0,0,1,259.372,599.023Z"/><path class="s" d="M275.272,608.2l-10.3-5.945c-.826-.477-.722-1.31.232-1.862l12.154-7.016a3.586,3.586,0,0,1,3.226-.136l10.3,5.945c.826.477.724,1.313-.232,1.862L278.5,608.07A3.58,3.58,0,0,1,275.272,608.2Z"/><path class="s" d="M297.266,600.622l-10.3-5.945c-.826-.477-.722-1.31.232-1.862l10.2-5.889a3.573,3.573,0,0,1,3.226-.132l10.3,5.945c.826.477.724,1.31-.232,1.862l-10.2,5.889A3.583,3.583,0,0,1,297.266,600.622Z"/><path class="s" d="M313.17,609.8l-10.3-5.946c-.828-.477-.724-1.312.23-1.862l10.2-5.892a3.589,3.589,0,0,1,3.226-.132l10.3,5.945c.826.477.722,1.31-.233,1.862l-10.2,5.889A3.586,3.586,0,0,1,313.17,609.8Z"/><path class="s" d="M329.071,618.988l-10.3-5.946c-.826-.477-.722-1.313.232-1.862l10.2-5.892a3.592,3.592,0,0,1,3.226-.133l10.3,5.946c.828.477.724,1.313-.23,1.862l-10.2,5.892A3.587,3.587,0,0,1,329.071,618.988Z"/><path class="s" d="M344.972,628.166l-10.3-5.945c-.826-.478-.724-1.31.233-1.862l10.2-5.89a3.586,3.586,0,0,1,3.226-.136l10.3,5.946c.826.477.724,1.311-.233,1.862l-10.2,5.891A3.589,3.589,0,0,1,344.972,628.166Z"/><path class="s" d="M360.877,637.347l-10.3-5.945c-.828-.478-.724-1.31.23-1.862l10.2-5.89a3.586,3.586,0,0,1,3.226-.133l10.3,5.946c.826.477.722,1.31-.232,1.862l-10.2,5.889A3.585,3.585,0,0,1,360.877,637.347Z"/><path class="s" d="M376.775,646.529l-10.3-5.948c-.826-.477-.722-1.31.233-1.86l10.2-5.892a3.583,3.583,0,0,1,3.226-.132l10.3,5.945c.828.477.724,1.31-.23,1.862L380,646.392A3.583,3.583,0,0,1,376.775,646.529Z"/><path class="s" d="M392.678,655.71l-10.3-5.946c-.828-.476-.724-1.312.23-1.862l10.2-5.892a3.589,3.589,0,0,1,3.226-.132l10.3,5.945c.826.476.722,1.312-.233,1.862l-10.2,5.892A3.6,3.6,0,0,1,392.678,655.71Z"/><path class="s" d="M408.583,664.89l-10.3-5.945c-.826-.477-.722-1.31.233-1.862l10.2-5.89a3.586,3.586,0,0,1,3.226-.136l10.3,5.945c.828.477.724,1.312-.23,1.862l-10.2,5.892A3.592,3.592,0,0,1,408.583,664.89Z"/><path class="s" d="M424.481,674.07l-10.3-5.945c-.826-.477-.724-1.31.232-1.862l10.2-5.889a3.576,3.576,0,0,1,3.226-.133l10.3,5.943c.826.48.724,1.313-.232,1.862l-10.2,5.892A3.58,3.58,0,0,1,424.481,674.07Z"/><path class="s" d="M440.385,683.251l-10.3-5.943c-.828-.479-.724-1.313.23-1.865l10.2-5.889a3.579,3.579,0,0,1,3.226-.133l10.3,5.945c.826.477.722,1.31-.232,1.862l-10.2,5.889A3.578,3.578,0,0,1,440.385,683.251Z"/><path class="s" d="M320.7,596.275l-10.3-5.946c-.828-.477-.724-1.31.23-1.862l10.2-5.888a3.58,3.58,0,0,1,3.226-.133l10.3,5.945c.826.477.722,1.31-.232,1.862l-10.2,5.889A3.579,3.579,0,0,1,320.7,596.275Z"/><path class="s" d="M304.557,586.958l-10.3-5.945c-.826-.477-.724-1.313.232-1.862l10.2-5.892a3.592,3.592,0,0,1,3.226-.133l10.3,5.946c.826.477.724,1.309-.232,1.861l-10.2,5.889A3.58,3.58,0,0,1,304.557,586.958Z"/><path class="s" d="M288.393,577.624l-22.177-12.8c-.828-.477-.724-1.309.23-1.862l10.2-5.888a3.58,3.58,0,0,1,3.226-.136l22.179,12.8c.828.477.724,1.31-.23,1.862l-10.2,5.888A3.578,3.578,0,0,1,288.393,577.624Z"/><path class="s" d="M299.692,566.275l-18-10.39c-.828-.479-.724-1.313.23-1.862l10.2-5.892a3.583,3.583,0,0,1,3.226-.132l18,10.391c.826.477.722,1.31-.233,1.862l-10.2,5.889A3.586,3.586,0,0,1,299.692,566.275Z"/><path class="s" d="M336.6,605.458l-10.3-5.946c-.826-.477-.722-1.312.233-1.862l10.2-5.892a3.589,3.589,0,0,1,3.226-.132l10.3,5.945c.828.477.724,1.31-.23,1.862l-10.2,5.889A3.586,3.586,0,0,1,336.6,605.458Z"/><path class="s" d="M352.5,614.635l-10.3-5.945c-.828-.477-.724-1.31.23-1.862l10.2-5.892a3.592,3.592,0,0,1,3.226-.133l10.3,5.946c.826.477.722,1.313-.233,1.862l-10.2,5.892A3.589,3.589,0,0,1,352.5,614.635Z"/><path class="s" d="M368.4,623.819l-10.3-5.945c-.826-.478-.722-1.31.232-1.862l10.2-5.889a3.58,3.58,0,0,1,3.226-.136l10.3,5.945c.828.477.724,1.313-.23,1.862l-10.2,5.892A3.593,3.593,0,0,1,368.4,623.819Z"/><path class="s" d="M384.3,633,374,627.054c-.826-.477-.724-1.31.233-1.862l10.2-5.889a3.586,3.586,0,0,1,3.226-.133l10.3,5.945c.826.477.724,1.31-.233,1.862l-10.2,5.889A3.58,3.58,0,0,1,384.3,633Z"/><path class="s" d="M400.207,642.182l-10.3-5.945c-.828-.477-.724-1.312.23-1.862l10.2-5.892a3.589,3.589,0,0,1,3.223-.133l10.3,5.945c.826.478.722,1.31-.232,1.862l-10.2,5.89A3.585,3.585,0,0,1,400.207,642.182Z"/><path class="s" d="M416.1,651.363l-10.3-5.945c-.826-.477-.722-1.313.233-1.862l10.2-5.892a3.586,3.586,0,0,1,3.226-.133l10.3,5.945c.828.477.724,1.31-.23,1.862l-10.2,5.892A3.592,3.592,0,0,1,416.1,651.363Z"/><path class="s" d="M432.01,660.544l-10.3-5.946c-.826-.476-.724-1.31.232-1.862l10.2-5.889a3.586,3.586,0,0,1,3.226-.136l10.3,5.945c.826.48.722,1.313-.232,1.862l-10.2,5.892A3.583,3.583,0,0,1,432.01,660.544Z"/><path class="s" d="M447.914,669.724l-10.3-5.945c-.828-.477-.724-1.31.23-1.862l10.2-5.89a3.58,3.58,0,0,1,3.226-.133l10.3,5.946c.828.476.724,1.31-.23,1.862l-10.2,5.889A3.586,3.586,0,0,1,447.914,669.724Z"/><path class="s" d="M463.809,678.907l-10.3-5.946c-.826-.48-.722-1.312.232-1.861l10.2-5.892a3.579,3.579,0,0,1,3.226-.133l10.3,5.945c.828.477.724,1.31-.233,1.862l-10.2,5.889A3.587,3.587,0,0,1,463.809,678.907Z"/><path class="s" d="M492.084,695.229l-22.468-12.973c-.826-.477-.722-1.31.232-1.862l10.2-5.889a3.58,3.58,0,0,1,3.226-.136l22.468,12.973c.828.477.724,1.31-.232,1.862l-10.2,5.889A3.586,3.586,0,0,1,492.084,695.229Z"/><path class="s" d="M523.045,677.353,504.081,666.4c-.828-.477-.724-1.31.23-1.862l10.2-5.889a3.571,3.571,0,0,1,3.226-.133L536.7,669.467c.828.476.724,1.31-.23,1.862l-10.2,5.889A3.583,3.583,0,0,1,523.045,677.353Z"/><path class="s" d="M364.447,603.661l-10.3-5.946c-.828-.477-.724-1.31.23-1.862l10.2-5.892a3.592,3.592,0,0,1,3.226-.132l10.3,5.945c.826.477.722,1.313-.232,1.862l-10.2,5.892A3.594,3.594,0,0,1,364.447,603.661Z"/><path class="s" d="M348.149,594.251l-10.3-5.946c-.828-.477-.724-1.31.23-1.862l10.2-5.889a3.577,3.577,0,0,1,3.226-.133l10.3,5.945c.826.478.722,1.31-.232,1.862l-10.2,5.89A3.585,3.585,0,0,1,348.149,594.251Z"/><path class="s" d="M331.851,584.844l-10.3-5.946c-.828-.477-.724-1.313.23-1.862l10.2-5.892a3.589,3.589,0,0,1,3.226-.132l10.3,5.945c.826.477.722,1.313-.232,1.862l-10.2,5.892A3.594,3.594,0,0,1,331.851,584.844Z"/><path class="s" d="M315.554,575.433l-10.3-5.945c-.828-.478-.724-1.31.232-1.862l10.2-5.89a3.577,3.577,0,0,1,3.226-.133l10.3,5.943c.826.479.722,1.312-.232,1.862l-10.2,5.892A3.583,3.583,0,0,1,315.554,575.433Z"/><path class="s" d="M380.349,612.842l-10.3-5.946c-.826-.477-.722-1.31.233-1.862l10.2-5.889a3.586,3.586,0,0,1,3.226-.136l10.3,5.945c.828.478.724,1.313-.23,1.862l-10.2,5.892A3.592,3.592,0,0,1,380.349,612.842Z"/><path class="s" d="M396.25,622.022l-10.3-5.945c-.826-.477-.724-1.31.232-1.862l10.2-5.89a3.582,3.582,0,0,1,3.226-.132l10.3,5.945c.826.477.724,1.31-.232,1.862l-10.2,5.889A3.577,3.577,0,0,1,396.25,622.022Z"/><path class="s" d="M412.153,631.206l-10.3-5.946c-.828-.479-.724-1.312.23-1.862l10.2-5.892a3.583,3.583,0,0,1,3.226-.132l10.3,5.945c.826.477.722,1.31-.233,1.862l-10.2,5.889A3.586,3.586,0,0,1,412.153,631.206Z"/><path class="s" d="M428.054,640.385l-10.3-5.945c-.826-.477-.722-1.312.232-1.862l10.2-5.892a3.591,3.591,0,0,1,3.23-.135l10.3,5.945c.828.477.724,1.313-.23,1.862l-10.2,5.892A3.592,3.592,0,0,1,428.054,640.385Z"/><path class="s" d="M443.957,649.566l-10.3-5.946c-.828-.476-.724-1.31.23-1.862l10.2-5.889a3.586,3.586,0,0,1,3.226-.136l10.3,5.945c.826.48.722,1.313-.232,1.863l-10.2,5.892A3.585,3.585,0,0,1,443.957,649.566Z"/><path class="s" d="M459.859,658.746l-10.3-5.945c-.826-.477-.722-1.31.232-1.862l10.2-5.889a3.58,3.58,0,0,1,3.226-.133l10.3,5.945c.828.477.724,1.31-.23,1.862l-10.2,5.889A3.578,3.578,0,0,1,459.859,658.746Z"/><path class="s" d="M475.76,667.929l-10.3-5.945c-.826-.479-.724-1.312.232-1.862l10.2-5.892a3.586,3.586,0,0,1,3.226-.133l10.3,5.945c.826.477.724,1.31-.233,1.862l-10.2,5.89A3.584,3.584,0,0,1,475.76,667.929Z"/><path class="s" d="M491.663,677.11l-10.3-5.945c-.828-.477-.724-1.313.23-1.862l10.2-5.892a3.586,3.586,0,0,1,3.226-.133l10.3,5.945c.826.477.721,1.313-.233,1.862l-10.2,5.892A3.6,3.6,0,0,1,491.663,677.11Z"/><path class="s" d="M507.564,686.289l-10.3-5.945c-.826-.477-.721-1.31.233-1.862l10.2-5.892a3.6,3.6,0,0,1,3.226-.133l10.3,5.945c.828.477.724,1.313-.23,1.862l-10.2,5.892A3.586,3.586,0,0,1,507.564,686.289Z"/><path class="s" d="M356.072,580.95l-10.3-5.942c-.826-.48-.724-1.313.232-1.862l10.2-5.892a3.58,3.58,0,0,1,3.226-.133l10.3,5.945c.826.477.724,1.31-.232,1.862l-10.2,5.889A3.574,3.574,0,0,1,356.072,580.95Z"/><path class="s" d="M340.25,571.817l-10.3-5.945c-.826-.478-.722-1.31.232-1.862l10.2-5.889a3.58,3.58,0,0,1,3.226-.136l10.3,5.945c.826.479.724,1.313-.232,1.862l-10.2,5.892A3.586,3.586,0,0,1,340.25,571.817Z"/><path class="s" d="M324.427,562.682l-10.3-5.946c-.826-.477-.722-1.312.232-1.862l10.2-5.892a3.589,3.589,0,0,1,3.226-.132l10.3,5.945c.828.477.724,1.31-.232,1.862l-10.2,5.892A3.6,3.6,0,0,1,324.427,562.682Z"/><path class="s" d="M308.6,553.545,298.3,547.6c-.826-.477-.722-1.31.233-1.862l10.2-5.889a3.586,3.586,0,0,1,3.226-.133l10.3,5.945c.828.478.724,1.31-.23,1.862l-10.2,5.89A3.573,3.573,0,0,1,308.6,553.545Z"/><path class="s" d="M324.874,544.153l-10.3-5.945c-.826-.478-.724-1.31.232-1.862l3.373-1.948a3.586,3.586,0,0,1,3.223-.132l10.3,5.945c.826.477.722,1.31-.232,1.862L328.1,544.02A3.586,3.586,0,0,1,324.874,544.153Z"/><path class="s" d="M345.524,556.07l-10.3-5.946c-.828-.477-.724-1.31.232-1.862l3.371-1.947a3.586,3.586,0,0,1,3.226-.133l10.3,5.946c.828.477.724,1.309-.23,1.861l-3.373,1.948A3.586,3.586,0,0,1,345.524,556.07Z"/><path class="s" d="M361.282,565.173l-10.3-5.945c-.828-.477-.724-1.313.23-1.862l3.373-1.947a3.574,3.574,0,0,1,3.226-.133l10.3,5.945c.828.477.724,1.31-.23,1.86l-3.373,1.949A3.592,3.592,0,0,1,361.282,565.173Z"/><path class="s" d="M377.037,574.269l-10.3-5.947c-.826-.478-.722-1.31.233-1.861l3.373-1.949a3.592,3.592,0,0,1,3.226-.133l10.3,5.946c.826.477.722,1.31-.232,1.862l-3.373,1.947A3.582,3.582,0,0,1,377.037,574.269Z"/><path class="s" d="M392.794,583.366l-10.3-5.946c-.826-.477-.724-1.309.232-1.862l3.371-1.947a3.586,3.586,0,0,1,3.226-.133l10.3,5.946c.826.477.722,1.31-.232,1.862l-3.373,1.947A3.585,3.585,0,0,1,392.794,583.366Z"/><path class="s" d="M480.759,634.155l-10.3-5.945c-.826-.477-.724-1.31.232-1.862l3.371-1.947a3.58,3.58,0,0,1,3.226-.133l10.3,5.945c.826.478.722,1.31-.233,1.862l-3.373,1.948A3.589,3.589,0,0,1,480.759,634.155Z"/><path class="s" d="M496.521,643.248l-10.3-5.945c-.828-.48-.724-1.314.23-1.862l3.373-1.95a3.589,3.589,0,0,1,3.226-.132l10.3,5.945c.828.477.724,1.313-.23,1.862l-3.373,1.947A3.586,3.586,0,0,1,496.521,643.248Z"/><path class="s" d="M512.278,652.35l-10.3-5.946c-.828-.477-.724-1.31.23-1.862l3.373-1.947a3.6,3.6,0,0,1,3.226-.133l10.3,5.945c.826.477.724,1.31-.233,1.862l-3.371,1.947A3.584,3.584,0,0,1,512.278,652.35Z"/><path class="s" d="M528.034,661.447l-10.3-5.945c-.826-.477-.722-1.313.232-1.862l3.373-1.947a3.579,3.579,0,0,1,3.226-.133l10.3,5.944c.826.477.722,1.31-.232,1.862l-3.373,1.947A3.589,3.589,0,0,1,528.034,661.447Z"/><path class="s" d="M371.976,590.133l-10.3-5.945c-.828-.477-.724-1.313.23-1.862l10.2-5.892a3.6,3.6,0,0,1,3.226-.133l10.3,5.946c.826.477.722,1.31-.233,1.862L375.2,590A3.592,3.592,0,0,1,371.976,590.133Z"/><path class="s" d="M387.876,599.314l-10.3-5.945c-.826-.477-.722-1.31.232-1.862l10.2-5.889a3.586,3.586,0,0,1,3.226-.136l10.3,5.945c.828.477.724,1.313-.23,1.862l-10.2,5.892A3.587,3.587,0,0,1,387.876,599.314Z"/><path class="s" d="M403.779,608.495l-10.3-5.946c-.828-.477-.724-1.31.232-1.862l10.2-5.888a3.58,3.58,0,0,1,3.226-.136l10.3,5.945c.826.48.722,1.313-.232,1.862l-10.2,5.892A3.586,3.586,0,0,1,403.779,608.495Z"/><path class="s" d="M419.682,617.675l-10.3-5.943c-.828-.479-.724-1.313.23-1.865l10.2-5.889a3.582,3.582,0,0,1,3.226-.132l10.3,5.945c.828.477.724,1.31-.23,1.862l-10.2,5.889A3.577,3.577,0,0,1,419.682,617.675Z"/><path class="s" d="M435.583,626.857l-10.3-5.945c-.826-.477-.722-1.313.232-1.862l10.2-5.892a3.6,3.6,0,0,1,3.226-.133l10.3,5.946c.826.477.724,1.309-.232,1.862l-10.2,5.892A3.592,3.592,0,0,1,435.583,626.857Z"/><path class="s" d="M451.485,636.039l-10.3-5.945c-.828-.478-.724-1.312.23-1.862l10.2-5.892a3.589,3.589,0,0,1,3.226-.133l10.3,5.945c.826.477.722,1.313-.233,1.862l-10.2,5.892A3.6,3.6,0,0,1,451.485,636.039Z"/><path class="s" d="M467.388,645.219l-10.3-5.946c-.826-.477-.722-1.31.232-1.862l10.2-5.889a3.586,3.586,0,0,1,3.226-.136l10.3,5.945c.828.48.724,1.313-.23,1.862l-10.2,5.893A3.581,3.581,0,0,1,467.388,645.219Z"/><path class="s" d="M483.289,654.4l-10.3-5.946c-.826-.476-.724-1.31.233-1.862l10.2-5.889a3.586,3.586,0,0,1,3.226-.133l10.3,5.946c.826.476.724,1.309-.233,1.862l-10.2,5.889A3.577,3.577,0,0,1,483.289,654.4Z"/><path class="s" d="M499.192,663.583l-10.3-5.946c-.828-.476-.724-1.312.23-1.862l10.2-5.892a3.592,3.592,0,0,1,3.226-.132l10.3,5.945c.826.476.722,1.31-.232,1.862l-10.2,5.889A3.588,3.588,0,0,1,499.192,663.583Z"/><path class="s" d="M281.064,591.267l-30.33-17.508c-.826-.479-.722-1.313.232-1.862l10.2-5.892a3.586,3.586,0,0,1,3.226-.133l30.326,17.508c.828.477.724,1.313-.23,1.862l-10.2,5.892A3.588,3.588,0,0,1,281.064,591.267Z"/><path class="s" d="M476.422,704.058,446.1,686.549c-.828-.477-.724-1.31.23-1.862l10.2-5.892a3.592,3.592,0,0,1,3.226-.133l30.326,17.508c.826.481.722,1.313-.232,1.862l-10.2,5.892A3.579,3.579,0,0,1,476.422,704.058Z"/><path class="s" d="M412.827,687.62l-10.3-5.946c-.828-.476-.724-1.312.232-1.862l12.154-7.018a3.586,3.586,0,0,1,3.226-.133l10.3,5.946c.826.476.722,1.31-.232,1.862l-12.154,7.018A3.6,3.6,0,0,1,412.827,687.62Z"/><path class="s" d="M297.345,620.95l-16.467-9.51c-.828-.477-.724-1.31.23-1.862l12.154-7.015a3.574,3.574,0,0,1,3.226-.133l16.47,9.507c.826.477.722,1.31-.233,1.862l-12.154,7.018A3.592,3.592,0,0,1,297.345,620.95Z"/><path class="s" d="M397.5,678.776l-16.467-9.507c-.828-.477-.724-1.312.23-1.862l12.154-7.018a3.58,3.58,0,0,1,3.226-.133l16.47,9.507c.826.476.722,1.31-.232,1.862l-12.154,7.018A3.594,3.594,0,0,1,397.5,678.776Z"/><path class="s" d="M320.288,634.2l-16.467-9.507c-.826-.48-.724-1.313.232-1.862l12.154-7.018a3.586,3.586,0,0,1,3.226-.136l16.467,9.51c.826.477.724,1.31-.232,1.862l-12.155,7.018A3.581,3.581,0,0,1,320.288,634.2Z"/><path class="s" d="M319.544,615.739l71.6,41.336a.98.98,0,0,1,0,1.857l-12.4,7.159a3.557,3.557,0,0,1-3.218,0l-71.6-41.337Z"/><path class="s" d="M457.271,704.269l11.469,6.621c.678.392.593,1.075-.189,1.528l-4.972,2.87a2.937,2.937,0,0,1-2.644.109l-11.471-6.621c-.676-.392-.591-1.075.191-1.528l4.972-2.87A2.931,2.931,0,0,1,457.271,704.269Z"/><path class="s" d="M441.238,695.012l11.469,6.622c.678.391.593,1.073-.189,1.526l-4.972,2.87a2.94,2.94,0,0,1-2.644.111l-11.471-6.623c-.678-.39-.591-1.075.191-1.526l4.972-2.872A2.947,2.947,0,0,1,441.238,695.012Z"/><path class="s" d="M425.334,685.829,436.8,692.45c.678.392.593,1.076-.189,1.529l-4.972,2.87a2.937,2.937,0,0,1-2.644.109l-11.469-6.621c-.678-.392-.593-1.075.189-1.526l4.972-2.872A2.94,2.94,0,0,1,425.334,685.829Z"/><path class="s" d="M450.018,689.94l11.469,6.622c.678.392.593,1.076-.189,1.526l-4.972,2.873a2.942,2.942,0,0,1-2.645.109l-11.469-6.623c-.678-.39-.593-1.073.189-1.526l4.972-2.87A2.936,2.936,0,0,1,450.018,689.94Z"/></g><path class="b" d="M612.248,442.523a4.836,4.836,0,0,1-2.4-.688,7.022,7.022,0,0,1-3.361-7.093,3.558,3.558,0,0,1,2.015-2.562,4.245,4.245,0,0,1,3.817.4,7.035,7.035,0,0,1,3.361,7.1,3.441,3.441,0,0,1-3.431,2.843ZM609.923,433a2.4,2.4,0,0,0-.981.2,2.476,2.476,0,0,0-1.38,1.8,5.853,5.853,0,0,0,2.838,5.889,3.171,3.171,0,0,0,2.824.346,2.467,2.467,0,0,0,1.383-1.8,5.864,5.864,0,0,0-2.841-5.892,3.74,3.74,0,0,0-1.843-.542Z"/><path class="b" d="M625.362,450.093a4.836,4.836,0,0,1-2.4-.688,7.022,7.022,0,0,1-3.361-7.093,3.549,3.549,0,0,1,2.015-2.562,4.252,4.252,0,0,1,3.819.4,7.037,7.037,0,0,1,3.359,7.1,3.441,3.441,0,0,1-3.431,2.845Zm-2.325-9.527a2.4,2.4,0,0,0-.981.2,2.476,2.476,0,0,0-1.38,1.8,5.854,5.854,0,0,0,2.841,5.889,3.171,3.171,0,0,0,2.824.346,2.47,2.47,0,0,0,1.38-1.8,5.864,5.864,0,0,0-2.841-5.892,3.752,3.752,0,0,0-1.846-.542Z"/><path class="b" d="M641.366,454.694c-.528,2.291-2.775,3.1-5.018,1.8a6.432,6.432,0,0,1-3.1-6.492c.528-2.291,2.775-3.1,5.018-1.807A6.432,6.432,0,0,1,641.366,454.694Z"/><path class="t" d="M389.963,310.016l-7.013-4.049.544-3.242,7.013,4.049Z"/><path class="t" d="M400.157,315.9l-7.013-4.049.543-3.242,7.013,4.049Z"/><path class="t" d="M379.875,304.192,364.5,295.313l.543-3.242,15.379,8.879Z"/><path class="b" d="M381.811,365.373,370.074,358.6l.455-2.713,11.737,6.776Z"/><path class="b" d="M391.826,371.156l-5.868-3.388.455-2.713,5.868,3.388Z"/><path class="b" d="M384.211,373.733l-5-2.887.455-2.713,5,2.887Z"/><path class="b" d="M392.583,378.571l-5.864-3.393.455-2.713,5.868,3.388Z"/><path class="b" d="M401.2,390.523l-23.062-13.315.455-2.713,23.062,13.315Z"/><path class="b" d="M381.21,443.776l-23.061-13.314.455-2.713,23.062,13.315Z"/><path class="b" d="M390.079,448.9l-5.868-3.388.455-2.713,5.869,3.388Z"/><path class="b" d="M382.074,386.457l-5-2.887.455-2.713,5,2.887Z"/><path class="b" d="M390.45,391.293l-5.868-3.388.455-2.713,5.868,3.388Z"/><path class="b" d="M388.685,397.251l-12.678-7.32.455-2.713,12.678,7.32Z"/><path class="b" d="M397.172,402.151l-5.868-3.388.455-2.713,5.868,3.388Z"/><path class="b" d="M405.7,407.076l-5.869-3.388.455-2.713,5.868,3.388Z"/><path class="b" d="M419.468,415.023l-11.1-6.411.455-2.713,11.1,6.411Z"/><path class="b" d="M410.68,423.9l-5.868-3.388.455-2.713,5.868,3.388Z"/><path class="b" d="M424.451,431.853l-11.1-6.411.455-2.713,11.1,6.411Z"/><path class="b" d="M379.742,406.042l-5.868-3.388.455-2.713,5.868,3.388Z"/><path class="b" d="M388.272,410.967l-5.868-3.388.455-2.713,5.869,3.388Z"/><path class="b" d="M402.039,418.916l-11.1-6.411.455-2.713,11.1,6.411Z"/><path class="b" d="M420.078,422.353l-5.868-3.388.455-2.713,5.868,3.388Z"/><path class="b" d="M428.609,427.278l-5.868-3.388.455-2.713,5.869,3.388Z"/><path class="b" d="M442.376,435.226l-11.1-6.411.455-2.713,11.1,6.411Z"/><path class="b" d="M399.26,454.2l-5.868-3.388.455-2.713,5.868,3.388Z"/><path class="b" d="M413.027,462.146l-11.1-6.411.455-2.713,11.1,6.411Z"/><path class="b" d="M377.608,418.765l-5.869-3.388.455-2.713,5.868,3.388Z"/><path class="b" d="M391.375,426.712l-11.1-6.411.455-2.713L391.83,424Z"/><path class="b" d="M405.653,464.865l-5.868-3.388.455-2.713,5.868,3.388Z"/><path class="b" d="M419.42,472.813l-11.1-6.411.455-2.713,11.1,6.411Z"/><path class="b" d="M418.744,400.652l-5.867-3.388.455-2.713,5.868,3.388Z"/><path class="b" d="M409.869,395.533,404,392.145l.455-2.713,5.868,3.388Z"/><path class="b" d="M432.511,408.6l-11.1-6.411.455-2.713,11.1,6.411Z"/><path class="b" d="M380.235,399.35l-5.295-3.057.455-2.713,5.3,3.057Z"/><path class="b" d="M395.935,408.414l-12.869-7.43.455-2.713,12.869,7.43Z"/><path class="b" d="M411.636,417.479l-12.869-7.43.455-2.713,12.869,7.43Z"/><path class="b" d="M440.667,413.308l-5.295-3.057.455-2.713,5.3,3.057Z"/><path class="b" d="M456.367,422.374l-12.869-7.43.455-2.713,12.87,7.43Z"/><path class="b" d="M472.071,431.441l-12.869-7.43.455-2.713,12.869,7.43Z"/><path class="b" d="M385.79,416.511l-12.869-7.433.455-2.713,12.869,7.43Z"/><path class="b" d="M392.574,420.428l-3.953-2.282.455-2.713,3.953,2.282Z"/><path class="b" d="M399.373,424.353l-3.953-2.282.455-2.713,3.953,2.282Z"/><path class="b" d="M411.943,431.608l-9.724-5.614.455-2.713,9.724,5.614Z"/><path class="b" d="M426.032,418.813l-3.953-2.282.455-2.713,3.953,2.282Z"/><path class="b" d="M438.6,426.07l-9.724-5.614.455-2.713,9.724,5.614Z"/><path class="b" d="M441.243,427.6l-9.721-5.614.455-2.713,9.724,5.614Z"/><path class="b" d="M389.475,462.5l-12.678-7.32.455-2.713,12.678,7.32Z"/><path class="b" d="M397.962,467.4l-5.868-3.388.455-2.713,5.868,3.388Z"/><path class="b" d="M406.493,472.328l-5.869-3.388.455-2.713,5.868,3.388Z"/><path class="b" d="M420.26,480.276l-11.1-6.411.455-2.713,11.1,6.411Z"/><path class="b" d="M429.065,485.36l-5.869-3.388.455-2.713,5.868,3.388Z"/><path class="b" d="M442.832,493.308l-11.1-6.411.455-2.713,11.1,6.411Z"/><path class="b" d="M400.6,482.881l-5.868-3.388.455-2.713,5.868,3.388Z"/><path class="b" d="M414.368,490.828l-11.1-6.411.455-2.713,11.1,6.411Z"/><path class="b" d="M369.95,465.184l-5.868-3.388.455-2.713,5.869,3.388Z"/><path class="b" d="M378.48,470.109l-5.868-3.388.455-2.713,5.868,3.388Z"/><path class="b" d="M392.248,478.058l-11.1-6.411.455-2.713,11.1,6.411Z"/><path class="b" d="M381.026,464.6l-5.3-3.057.455-2.713,5.295,3.057Z"/><path class="b" d="M396.727,473.667l-12.869-7.43.455-2.713,12.869,7.43Z"/><path class="b" d="M412.427,482.731l-12.869-7.43.455-2.713,12.869,7.43Z"/><path class="b" d="M365.618,469.66l-12.869-7.43.455-2.713,12.869,7.43Z"/><path class="b" d="M372.4,473.577l-3.953-2.282.455-2.713,3.953,2.282Z"/><path class="b" d="M379.2,477.506l-3.953-2.282.455-2.713,3.953,2.282Z"/><path class="b" d="M391.771,484.759l-9.724-5.614.455-2.713,9.724,5.614Z"/><path class="b" d="M394.413,486.284l-9.724-5.614.455-2.713,9.724,5.614Z"/><path class="b" d="M371.417,445.1l-3.953-2.282.455-2.713,3.953,2.282Z"/><path class="b" d="M383.985,452.355l-9.724-5.614.455-2.713,9.724,5.614Z"/><path class="b" d="M396.826,459.769l-9.724-5.614.455-2.716,9.724,5.614Z"/><path class="b" d="M446.314,502.3l-5.869-3.388.455-2.713,5.868,3.388Z"/><path class="b" d="M460.08,510.243l-11.1-6.411.455-2.713,11.1,6.411Z"/><path class="b" d="M424.645,489.784l-9.724-5.614.455-2.713,9.724,5.614Z"/><path class="b" d="M437.487,497.2l-9.724-5.614.455-2.713,9.724,5.614Z"/><path class="b" d="M364.54,418.2l-3.953-2.282.455-2.713,3.953,2.282Z"/><path class="b" d="M377.11,425.454l-9.724-5.614.455-2.713,9.724,5.614Z"/><path class="b" d="M389.952,432.868l-9.724-5.614.455-2.713,9.724,5.614Z"/><path class="c" d="M583.963,531.759a5.465,5.465,0,0,1-2.72-.787L502.649,485.6c-3.206-1.853-5.279-6.541-4.625-10.449l5.027-29.987a5.587,5.587,0,0,1,2.884-4.311,4.826,4.826,0,0,1,4.545.38l78.6,45.379c3.2,1.85,5.279,6.536,4.623,10.445l-5.027,29.987a5.578,5.578,0,0,1-2.883,4.31A4.255,4.255,0,0,1,583.963,531.759Zm-76.2-90.209a3.137,3.137,0,0,0-1.354.3,4.509,4.509,0,0,0-2.264,3.5l-5.03,29.987c-.586,3.492,1.25,7.667,4.092,9.309L581.8,530.02a3.749,3.749,0,0,0,3.521.341,4.52,4.52,0,0,0,2.267-3.5l5.027-29.987c.586-3.492-1.25-7.667-4.09-9.306l-78.6-45.377a4.328,4.328,0,0,0-2.167-.641Z"/><path class="c" d="M575.321,583.289a5.457,5.457,0,0,1-2.719-.785l-78.594-45.377c-3.2-1.851-5.279-6.536-4.625-10.448l5.03-29.987a5.583,5.583,0,0,1,2.877-4.311,4.828,4.828,0,0,1,4.55.379l78.6,45.375c3.206,1.85,5.279,6.536,4.625,10.445l-5.03,29.987a5.577,5.577,0,0,1-2.882,4.31A4.23,4.23,0,0,1,575.321,583.289Zm-2.165-1.74a3.746,3.746,0,0,0,3.521.337,4.507,4.507,0,0,0,2.264-3.5l5.027-29.987c.588-3.49-1.247-7.666-4.088-9.306l-78.594-45.376a3.765,3.765,0,0,0-3.526-.34,4.506,4.506,0,0,0-2.262,3.5l-5.03,29.991c-.583,3.492,1.252,7.667,4.093,9.306Z"/><path class="b" d="M509.711,482.364c1.392.8,2.632.5,3.092-.751l9.164-25.042c1.046-2.86,5.323-.274,6.228,3.766l5.643,25.2a7.338,7.338,0,0,0,3.138,4.516l1.346.777c1.31.758,2.494.538,3.01-.555l1.867-3.955c1.157-2.453,5.013-.14,6.066,3.637h0a7.3,7.3,0,0,0,3.056,4.192l1.177.68c1.429.823,2.69.484,3.122-.838l1.7-5.228c.961-2.952,5.25-.494,6.236,3.57l5.647,23.333a7.3,7.3,0,0,0,3.163,4.436Z"/><path class="c" d="M563.418,571.433a7.843,7.843,0,0,1-3.432-4.791l-5.647-23.333c-.6-2.48-2.615-4.393-4.015-4.446a1.119,1.119,0,0,0-1.158.918l-1.7,5.228a2.3,2.3,0,0,1-1.354,1.516,3,3,0,0,1-2.569-.373l-1.175-.677a7.81,7.81,0,0,1-3.313-4.525c-.668-2.393-2.545-4.123-3.88-4.238a1.066,1.066,0,0,0-1.158.69l-1.865,3.955a2.194,2.194,0,0,1-1.344,1.213,3.048,3.048,0,0,1-2.443-.417l-1.346-.777a7.859,7.859,0,0,1-3.4-4.872l-5.647-25.2c-.555-2.489-2.564-4.452-3.993-4.545a1.123,1.123,0,0,0-1.174.845l-9.166,25.045a2.269,2.269,0,0,1-1.354,1.423,3.023,3.023,0,0,1-2.53-.384l.554-.957a1.94,1.94,0,0,0,1.6.3,1.176,1.176,0,0,0,.693-.763l9.166-25.045a2.177,2.177,0,0,1,2.281-1.567c1.86.119,4.313,2.322,5,5.4l5.645,25.2a6.775,6.775,0,0,0,2.872,4.159l1.349.776a2.049,2.049,0,0,0,1.559.321,1.119,1.119,0,0,0,.676-.631l1.865-3.955a2.168,2.168,0,0,1,2.247-1.32c1.978.167,4.107,2.383,4.85,5.042a6.759,6.759,0,0,0,2.8,3.865l1.179.678a1.975,1.975,0,0,0,1.62.3,1.226,1.226,0,0,0,.7-.828l1.7-5.228a2.2,2.2,0,0,1,2.146-1.678h.1c1.836.07,4.3,2.213,5.047,5.289l5.647,23.333a6.77,6.77,0,0,0,2.9,4.084Z"/><path class="b" d="M531.879,416.015a6.91,6.91,0,0,1-3.441-.978L466.989,379.56a10.933,10.933,0,0,1-4.725-11.776A6.55,6.55,0,0,1,466,363.268a6.3,6.3,0,0,1,5.626.55l61.457,35.476A10.935,10.935,0,0,1,537.8,411.07a6.546,6.546,0,0,1-3.732,4.516A5.786,5.786,0,0,1,531.879,416.015Zm-63.7-52.072a4.589,4.589,0,0,0-1.765.346,5.459,5.459,0,0,0-3.085,3.787,9.779,9.779,0,0,0,4.214,10.529l61.449,35.475a5.2,5.2,0,0,0,4.654.484,5.461,5.461,0,0,0,3.088-3.787,9.77,9.77,0,0,0-4.216-10.529l-61.447-35.475A5.758,5.758,0,0,0,468.179,363.943Z"/></g></svg>